<svg xmlns="http://www.w3.org/2000/svg" width="24" height="24" viewBox="0 0 24 24" fill="none"><path d="M9.2686 17.4C9.16161 18.1508 8.78729 18.8379 8.21441 19.3349C7.64153 19.8319 6.90854 20.1056 6.1501 20.1056C5.39165 20.1056 4.65867 19.8319 4.08579 19.3349C3.5129 18.8379 3.13859 18.1508 3.0316 17.4H2.1001V6.59995C2.1001 6.36126 2.19492 6.13234 2.3637 5.96356C2.53248 5.79477 2.7614 5.69995 3.0001 5.69995H15.6001C15.8388 5.69995 16.0677 5.79477 16.2365 5.96356C16.4053 6.13234 16.5001 6.36126 16.5001 6.59995V8.39995H19.2001L21.9001 12.0504V17.4H20.0686C19.9616 18.1508 19.5873 18.8379 19.0144 19.3349C18.4415 19.8319 17.7085 20.1056 16.9501 20.1056C16.1917 20.1056 15.4587 19.8319 14.8858 19.3349C14.3129 18.8379 13.9386 18.1508 13.8316 17.4H9.2686ZM14.7001 7.49995H3.9001V14.745C4.2552 14.3824 4.69264 14.1111 5.17518 13.954C5.65771 13.7968 6.17106 13.7586 6.67154 13.8426C7.17201 13.9266 7.64479 14.1302 8.04965 14.4362C8.4545 14.7421 8.77943 15.1414 8.9968 15.6H14.1034C14.2546 15.2823 14.4571 14.9934 14.7001 14.745V7.49995ZM16.5001 12.9H20.1001V12.6435L18.2929 10.2H16.5001V12.9ZM16.9501 18.3C17.3083 18.3 17.6518 18.1577 17.905 17.9044C18.1583 17.6512 18.3005 17.3077 18.3005 16.9495C18.3005 16.5913 18.1583 16.2478 17.905 15.9946C17.6518 15.7413 17.3083 15.5991 16.9501 15.5991C16.5919 15.5991 16.2484 15.7413 15.9952 15.9946C15.7419 16.2478 15.5996 16.5913 15.5996 16.9495C15.5996 17.3077 15.7419 17.6512 15.9952 17.9044C16.2484 18.1577 16.5919 18.3 16.9501 18.3V18.3ZM7.5001 16.95C7.5001 16.7727 7.46518 16.5971 7.39734 16.4333C7.32949 16.2695 7.23005 16.1207 7.10469 15.9954C6.97933 15.87 6.83051 15.7706 6.66672 15.7027C6.50293 15.6349 6.32738 15.6 6.1501 15.6C5.97281 15.6 5.79726 15.6349 5.63347 15.7027C5.46969 15.7706 5.32086 15.87 5.1955 15.9954C5.07014 16.1207 4.9707 16.2695 4.90286 16.4333C4.83502 16.5971 4.8001 16.7727 4.8001 16.95C4.8001 17.308 4.94233 17.6514 5.1955 17.9045C5.44868 18.1577 5.79206 18.3 6.1501 18.3C6.50814 18.3 6.85152 18.1577 7.10469 17.9045C7.35787 17.6514 7.5001 17.308 7.5001 16.95V16.95Z" fill="#0E121B"></path></svg>